<svg width="60" height="60" viewBox="0 0 60 60" fill="none" xmlns="http://www.w3.org/2000/svg">
<path d="M25 32.5L20 37.5M30 55C30 55 7.5 45 7.5 27.5V12.5L30 5L52.5 12.5V27.5C52.5 45 30 55 30 55ZM30 35C30.9849 35 31.9602 34.806 32.8701 34.4291C33.7801 34.0522 34.6069 33.4997 35.3033 32.8033C35.9997 32.1069 36.5522 31.2801 36.9291 30.3701C37.306 29.4602 37.5 28.4849 37.5 27.5C37.5 26.5151 37.306 25.5398 36.9291 24.6299C36.5522 23.7199 35.9997 22.8931 35.3033 22.1967C34.6069 21.5003 33.7801 20.9478 32.8701 20.5709C31.9602 20.194 30.9849 20 30 20C28.0109 20 26.1032 20.7902 24.6967 22.1967C23.2902 23.6032 22.5 25.5109 22.5 27.5C22.5 29.4891 23.2902 31.3968 24.6967 32.8033C26.1032 34.2098 28.0109 35 30 35V35ZM30 20V12.5V20ZM30 42.5V35V42.5ZM15 27.5H22.5H15ZM37.5 27.5H45H37.5ZM20 17.5L25 22.5L20 17.5ZM35 32.5L40 37.5L35 32.5ZM40 17.5L35 22.5L40 17.5Z" stroke="#121212" stroke-width="2"/>
</svg>
