<svg width="33" height="32" viewBox="0 0 33 32" fill="none" xmlns="http://www.w3.org/2000/svg">
<path d="M16.2953 15.1114C17.5212 15.1114 18.7195 14.7465 19.7387 14.0628C20.7579 13.3791 21.5524 12.4073 22.0215 11.2704C22.4906 10.1334 22.6133 8.88232 22.3742 7.67532C22.135 6.46833 21.5447 5.35964 20.6779 4.48944C19.8111 3.61925 18.7068 3.02664 17.5045 2.78655C16.3022 2.54647 15.056 2.66969 13.9235 3.14063C12.791 3.61158 11.823 4.4091 11.1419 5.43234C10.4609 6.45558 10.0974 7.65858 10.0974 8.88922C10.0974 10.5395 10.7504 12.1221 11.9127 13.289C13.0751 14.4559 14.6515 15.1114 16.2953 15.1114ZM16.2953 4.44477C17.1709 4.44477 18.0269 4.70544 18.7549 5.1938C19.4829 5.68216 20.0503 6.37629 20.3854 7.1884C20.7205 8.00052 20.8082 8.89415 20.6373 9.75629C20.4665 10.6184 20.0449 11.4103 19.4257 12.0319C18.8066 12.6535 18.0178 13.0768 17.159 13.2483C16.3002 13.4198 15.4101 13.3317 14.6012 12.9953C13.7922 12.659 13.1008 12.0893 12.6143 11.3584C12.1279 10.6275 11.8682 9.76825 11.8682 8.88922C11.8682 7.71048 12.3347 6.58002 13.1649 5.74652C13.9951 4.91303 15.1212 4.44477 16.2953 4.44477Z" fill="#121212"/>
<path d="M27.3365 21.6627C25.9165 20.156 24.2054 18.9559 22.3078 18.1358C20.4101 17.3156 18.3658 16.8926 16.2998 16.8926C14.2337 16.8926 12.1894 17.3156 10.2917 18.1358C8.39407 18.9559 6.68298 20.156 5.26304 21.6627C4.95519 21.9928 4.78422 22.4283 4.78491 22.8805V27.556C4.78491 28.0275 4.97148 28.4797 5.30358 28.8131C5.63567 29.1465 6.08609 29.3338 6.55575 29.3338H26.0349C26.5046 29.3338 26.955 29.1465 27.2871 28.8131C27.6192 28.4797 27.8057 28.0275 27.8057 27.556V22.8805C27.8088 22.4295 27.6411 21.9942 27.3365 21.6627ZM26.0349 27.556H6.55575V22.8716C7.81058 21.5451 9.32116 20.4888 10.9955 19.767C12.6699 19.0451 14.4731 18.6729 16.2953 18.6729C18.1176 18.6729 19.9207 19.0451 21.5951 19.767C23.2695 20.4888 24.7801 21.5451 26.0349 22.8716V27.556Z" fill="#121212"/>
</svg>
