<svg width="33" height="32" viewBox="0 0 33 32" fill="none" xmlns="http://www.w3.org/2000/svg">
<path d="M16.0767 28.8262C15.8811 28.8256 15.6912 28.7599 15.5366 28.6395C10.6137 24.7995 7.22258 21.4929 4.84966 18.2306C1.82153 14.0617 1.13091 10.2129 2.79549 6.79063C3.98195 4.34619 7.3908 2.34619 11.3752 3.51063C13.2749 4.06151 14.9323 5.24288 16.0767 6.86174C17.2212 5.24288 18.8786 4.06151 20.7783 3.51063C24.7538 2.36396 28.1715 4.34619 29.358 6.79063C31.0226 10.2129 30.332 14.0617 27.3038 18.2306C24.9309 21.4929 21.5398 24.7995 16.6168 28.6395C16.4623 28.7599 16.2724 28.8256 16.0767 28.8262ZM9.10851 4.95952C8.16046 4.92248 7.22025 5.14534 6.38882 5.60418C5.55739 6.06303 4.86613 6.74053 4.38924 7.56396C3.01685 10.3906 3.63664 13.5373 6.28403 17.1729C9.09751 20.816 12.392 24.0577 16.0767 26.8084C19.7609 24.0604 23.0554 20.8218 25.8694 17.1817C28.5257 13.5373 29.1366 10.3906 27.7642 7.57285C26.8788 5.79508 24.2226 4.38174 21.2653 5.2173C20.317 5.49863 19.438 5.97616 18.6847 6.61914C17.9313 7.26213 17.3205 8.05633 16.8913 8.95063C16.8246 9.11366 16.7111 9.2531 16.5653 9.35124C16.4195 9.44937 16.2479 9.50177 16.0723 9.50177C15.8968 9.50177 15.7252 9.44937 15.5793 9.35124C15.4335 9.2531 15.32 9.11366 15.2533 8.95063C14.8274 8.05409 14.2176 7.25803 13.4638 6.61465C12.71 5.97126 11.8293 5.49507 10.8793 5.2173C10.3038 5.04948 9.70783 4.96272 9.10851 4.95952Z" fill="#121212"/>
</svg>
