<svg width="33" height="32" viewBox="0 0 33 32" fill="none" xmlns="http://www.w3.org/2000/svg">
<path d="M12.7229 28.4443C13.8232 28.4443 14.7151 27.5489 14.7151 26.4443C14.7151 25.3398 13.8232 24.4443 12.7229 24.4443C11.6226 24.4443 10.7307 25.3398 10.7307 26.4443C10.7307 27.5489 11.6226 28.4443 12.7229 28.4443Z" fill="#121212"/>
<path d="M24.8267 28.4443C25.9269 28.4443 26.8188 27.5489 26.8188 26.4443C26.8188 25.3398 25.9269 24.4443 24.8267 24.4443C23.7264 24.4443 22.8345 25.3398 22.8345 26.4443C22.8345 27.5489 23.7264 28.4443 24.8267 28.4443Z" fill="#121212"/>
<path d="M30.2101 4.77289C30.1277 4.67092 30.0238 4.58854 29.906 4.53168C29.7881 4.47481 29.6591 4.44487 29.5283 4.444H11.094L11.6695 6.22178H28.3684L26.0044 16.8884H12.7231L8.67678 4.02622C8.63301 3.88974 8.557 3.76591 8.45525 3.66531C8.35349 3.5647 8.229 3.49029 8.0924 3.44844L4.46219 2.32844C4.35057 2.29401 4.23328 2.28198 4.11703 2.29305C4.00078 2.30412 3.88783 2.33807 3.78465 2.39296C3.57626 2.50381 3.42027 2.69324 3.351 2.91955C3.28172 3.14587 3.30484 3.39055 3.41526 3.59976C3.52568 3.80896 3.71436 3.96556 3.9398 4.03511L7.11844 5.01289L11.1825 17.9018L9.73042 19.0929L9.61532 19.2084C9.25614 19.624 9.05255 20.1523 9.03962 20.7023C9.02669 21.2523 9.20523 21.7897 9.54449 22.2218C9.78581 22.5164 10.0925 22.7502 10.4399 22.9046C10.7874 23.0589 11.166 23.1295 11.5455 23.1107H26.3231C26.558 23.1107 26.7832 23.017 26.9492 22.8503C27.1153 22.6836 27.2085 22.4575 27.2085 22.2218C27.2085 21.986 27.1153 21.7599 26.9492 21.5932C26.7832 21.4265 26.558 21.3329 26.3231 21.3329H11.4039C11.3019 21.3294 11.2026 21.2996 11.1154 21.2463C11.0283 21.193 10.9564 21.118 10.9065 21.0287C10.8567 20.9393 10.8306 20.8386 10.8309 20.7361C10.8312 20.6337 10.8577 20.5331 10.908 20.444L13.0419 18.6662H26.7127C26.9174 18.6712 27.1175 18.6049 27.2789 18.4785C27.4403 18.3521 27.5531 18.1734 27.5981 17.9729L30.4049 5.52844C30.4318 5.39593 30.4283 5.25899 30.3945 5.12806C30.3608 4.99712 30.2977 4.87565 30.2101 4.77289Z" fill="#121212"/>
</svg>
