<svg width="60" height="60" viewBox="0 0 60 60" fill="none" xmlns="http://www.w3.org/2000/svg">
<path d="M10 32.4992V52.4992H27.5V32.4992H10ZM30 32.4992V52.4992H47.5V32.4992H30ZM50 32.4992V54.9992H7.5V32.4992H5V17.4992H12.5875L12.5 16.2492C12.4993 14.3358 13.1258 12.475 14.2835 10.9517C15.4412 9.42835 17.0663 8.32648 18.91 7.81479C20.7536 7.30311 22.7142 7.40983 24.4914 8.11861C26.2686 8.82739 27.7645 10.0992 28.75 11.7392C29.7355 10.0992 31.2314 8.82739 33.0086 8.11861C34.7858 7.40983 36.7464 7.30311 38.59 7.81479C40.4337 8.32648 42.0588 9.42835 43.2165 10.9517C44.3742 12.475 45.0007 14.3358 45 16.2492L44.9125 17.4992H52.5V32.4992H50ZM7.5 19.9992V29.9992H27.5V19.9992H7.5ZM50 29.9992V19.9992H30V29.9992H50ZM42.375 17.4992L42.5 16.2492C42.5 14.5916 41.8415 13.0018 40.6694 11.8297C39.4973 10.6576 37.9076 9.99916 36.25 9.99916C34.5924 9.99916 33.0027 10.6576 31.8306 11.8297C30.6585 13.0018 30 14.5916 30 16.2492V17.4992H42.375ZM27.5 17.4992V16.2492C27.5 14.5916 26.8415 13.0018 25.6694 11.8297C24.4973 10.6576 22.9076 9.99916 21.25 9.99916C19.5924 9.99916 18.0027 10.6576 16.8306 11.8297C15.6585 13.0018 15 14.5916 15 16.2492L15.125 17.4992H27.5Z" fill="#121212"/>
</svg>
